<svg
  xmlns="http://www.w3.org/2000/svg"
  viewBox="0 0 211.09 211.09"
  role="img"
  aria-labelledby="iconLightTitle"
>
  <title id="iconLightTitle">AIGC Friendly Frontend app icon for light backgrounds</title>
  <rect width="211.09" height="211.09" rx="42" fill="#FFFFFF" />
  <g transform="translate(22.79 19) scale(0.82)" fill="#0B0B0B">
    <g>
      <path d="M150.98 150.28c-.11 0-.23 0-.36 0 .04 0 .09.01.13.01 .09-.01.16-.01.23-.01Z" />
      <path d="M134.8 127.02c4.91-5.44 8.15-12.33 8.87-20.03 1.84-19.81-13.67-37.45-34.64-39.39-20.97-1.94-39.45 12.54-41.29 32.35-1.84 19.81 13.67 37.45 34.64 39.39 5.26.49 10.36-.06 15.09-1.46 10.99 5.65 23.84 6.15 27.64 6.14-4.04.02-7.76-8.91-10.31-17Z" />
      <path d="M150.98 150.28c.96-.01 1.06-.06 0 0Z" />
    </g>
    <path d="M195.77 50.4c-.23.05-.47.08-.71.12-5.31 4.95-12.47 7.99-20.35 7.99-16.38 0-29.65-13.1-29.65-29.25 0-7.26 2.69-13.9 7.13-19.01C138.57 3.67 123.13 0 106.35 0 43.95 0 0 50.58 0 112.97c0 62.39 44.67 98.11 121.22 98.11 7.16 0 13.53.62 14.06-8.51v-30.45c-.28-7.12-2.25-8.69-9.59-8.69-49.77.02-72.5-15.71-78.04-50.46-5.68-35.63 22.62-65.32 58.7-65.32 36.08 0 54.28 27.04 54.28 63.11l.62 69.99c1.18 2.49 39.37 20.59 39.63 17.6 .26-2.99.8-83.78.66-85.38-1.47-16.15-.42-40.96-5.81-62.57Z" />
    <ellipse cx="176.47" cy="27.87" rx="21.26" ry="20.97" />
  </g>
</svg>
