<svg
  xmlns="http://www.w3.org/2000/svg"
  viewBox="0 0 201.83 211.09"
  role="img"
  aria-labelledby="logoTitle"
>
  <title id="logoTitle">AIGC Friendly Frontend logo</title>
  <defs>
    <linearGradient id="logoGradient" x1="0" y1="105.5438" x2="201.8349" y2="105.5438" gradientUnits="userSpaceOnUse">
      <stop offset="65.52%" stop-color="#1255CC" />
      <stop offset="82.27%" stop-color="#29B8F0" />
    </linearGradient>
  </defs>
  <g>
    <g fill="#29B8F0">
      <path d="M150.98 150.28c-.11 0-.23 0-.36 0 .04 0 .09.01.13.01 .09-.01.16-.01.23-.01Z" />
      <path d="M134.8 127.02c4.91-5.44 8.15-12.33 8.87-20.03 1.84-19.81-13.67-37.45-34.64-39.39-20.97-1.94-39.45 12.54-41.29 32.35-1.84 19.81 13.67 37.45 34.64 39.39 5.26.49 10.36-.06 15.09-1.46 10.99 5.65 23.84 6.15 27.64 6.14-4.04.02-7.76-8.91-10.31-17Z" />
      <path d="M150.98 150.28c.96-.01 1.06-.06 0 0Z" />
    </g>
    <path
      fill="#D93025"
      d="M197.73 27.87c0 11.58-9.52 20.97-21.26 20.97-11.74 0-21.26-9.39-21.26-20.97 0-11.58 9.52-20.97 21.26-20.97 11.74 0 21.26 9.39 21.26 20.97Z"
    />
    <path
      fill="url(#logoGradient)"
      d="M195.77 50.4c-.23.05-.47.08-.71.12-5.31 4.95-12.47 7.99-20.35 7.99-16.38 0-29.65-13.1-29.65-29.25 0-7.26 2.69-13.9 7.13-19.01C138.57 3.67 123.13 0 106.35 0 43.95 0 0 50.58 0 112.97c0 62.39 44.67 98.11 121.22 98.11 7.16 0 13.53.62 14.06-8.51v-30.45c-.28-7.12-2.25-8.69-9.59-8.69-49.77.02-72.5-15.71-78.04-50.46-5.68-35.63 22.62-65.32 58.7-65.32 36.08 0 54.28 27.04 54.28 63.11l.62 69.99c1.18 2.49 39.37 20.59 39.63 17.6 .26-2.99.8-83.78.66-85.38-1.47-16.15-.42-40.96-5.81-62.57Z"
    />
  </g>
</svg>
